<?xml version="1.0" encoding="UTF-8" standalone="no"?>
<!-- Created with Inkscape (http://www.inkscape.org/) -->

<svg
   xmlns:dc="http://purl.org/dc/elements/1.1/"
   xmlns:cc="http://creativecommons.org/ns#"
   xmlns:rdf="http://www.w3.org/1999/02/22-rdf-syntax-ns#"
   xmlns:svg="http://www.w3.org/2000/svg"
   xmlns="http://www.w3.org/2000/svg"
   xmlns:sodipodi="http://sodipodi.sourceforge.net/DTD/sodipodi-0.dtd"
   xmlns:inkscape="http://www.inkscape.org/namespaces/inkscape"
   width="106.29921"
   height="30.118109"
   id="svg2"
   version="1.1"
   inkscape:version="0.48.2 r9819"
   sodipodi:docname="lessone">
  <defs
     id="defs4" />
  <sodipodi:namedview
     id="base"
     pagecolor="#ffffff"
     bordercolor="#666666"
     borderopacity="1.0"
     inkscape:pageopacity="0.0"
     inkscape:pageshadow="2"
     inkscape:zoom="10.963849"
     inkscape:cx="64.670342"
     inkscape:cy="31.320829"
     inkscape:document-units="px"
     inkscape:current-layer="layer1"
     showgrid="false"
     units="cm"
     inkscape:window-width="2560"
     inkscape:window-height="1344"
     inkscape:window-x="0"
     inkscape:window-y="0"
     inkscape:window-maximized="0" />
  <metadata
     id="metadata7">
    <rdf:RDF>
      <cc:Work
         rdf:about="">
        <dc:format>image/svg+xml</dc:format>
        <dc:type
           rdf:resource="http://purl.org/dc/dcmitype/StillImage" />
        <dc:title></dc:title>
      </cc:Work>
    </rdf:RDF>
  </metadata>
  <g
     inkscape:label="Layer 1"
     inkscape:groupmode="layer"
     id="layer1"
     transform="translate(0,-1022.2428)">
    <path
       style="fill:none;stroke:#000000;stroke-width:0.60000002;stroke-linecap:butt;stroke-linejoin:miter;stroke-miterlimit:4;stroke-opacity:1;stroke-dasharray:none"
       d="m 0.49164282,1044.3217 101.84029718,0"
       id="path2985"
       inkscape:connector-curvature="0" />
    <path
       sodipodi:type="arc"
       style="fill:#000000;fill-opacity:1;stroke-width:0.60000002;stroke-miterlimit:4;stroke-dasharray:none"
       id="path3759"
       sodipodi:cx="58.575729"
       sodipodi:cy="52.534889"
       sodipodi:rx="0.98328567"
       sodipodi:ry="0.98328567"
       d="m 59.559015,52.534889 c 0,0.543054 -0.440232,0.983286 -0.983286,0.983286 -0.543053,0 -0.983285,-0.440232 -0.983285,-0.983286 0,-0.543053 0.440232,-0.983285 0.983285,-0.983285 0.543054,0 0.983286,0.440232 0.983286,0.983285 z"
       transform="matrix(1,0,0,-1,-2.5284488,1096.8566)" />
    <path
       sodipodi:type="arc"
       style="fill:#000000;fill-opacity:1;stroke-width:0.60000002;stroke-miterlimit:4;stroke-dasharray:none"
       id="path3759-6"
       sodipodi:cx="58.575729"
       sodipodi:cy="52.534889"
       sodipodi:rx="0.98328567"
       sodipodi:ry="0.98328567"
       d="m 59.559015,52.534889 c 0,0.543054 -0.440232,0.983286 -0.983286,0.983286 -0.543053,0 -0.983285,-0.440232 -0.983285,-0.983286 0,-0.543053 0.440232,-0.983285 0.983285,-0.983285 0.543054,0 0.983286,0.440232 0.983286,0.983285 z"
       transform="matrix(1,0,0,-1,42.232245,1096.8712)" />
    <path
       style="fill:none;stroke:#000000;stroke-width:0.5;stroke-linecap:butt;stroke-linejoin:miter;stroke-miterlimit:4;stroke-opacity:1;stroke-dasharray:none"
       d="m 55.995335,1044.2433 c 0,0 6.307609,-14.9881 23.021637,-14.9881 14.885463,0 22.062398,14.9881 22.062398,14.9881"
       id="path3823"
       inkscape:connector-curvature="0"
       sodipodi:nodetypes="csc" />
    <path
       style="fill:none;stroke:#000000;stroke-width:0.2;stroke-linecap:butt;stroke-linejoin:miter;stroke-miterlimit:4;stroke-opacity:1;stroke-dasharray:none"
       d="m 80.292285,1023.0724 c 0,0 -0.507458,0.6073 -1.265498,1.0406 -0.75804,0.4333 -1.612207,0.6381 -1.612207,0.6381"
       id="path3825"
       inkscape:connector-curvature="0"
       sodipodi:nodetypes="czc" />
    <path
       style="fill:none;stroke:#000000;stroke-width:0.2;stroke-linecap:butt;stroke-linejoin:miter;stroke-miterlimit:4;stroke-opacity:1;stroke-dasharray:none"
       d="m 80.350045,1026.4277 c 0,0 -0.596265,-0.6146 -1.265497,-1.0406 -0.669232,-0.426 -1.612208,-0.638 -1.612208,-0.638"
       id="path3825-8"
       inkscape:connector-curvature="0"
       sodipodi:nodetypes="czc" />
    <path
       style="fill:none;stroke:#000000;stroke-width:0.2;stroke-linecap:butt;stroke-linejoin:miter;stroke-miterlimit:4;stroke-opacity:1;stroke-dasharray:none"
       d="m 77.330067,1026.8793 3.084667,0"
       id="path3845"
       inkscape:connector-curvature="0"
       sodipodi:nodetypes="cc" />
    <text
       xml:space="preserve"
       style="font-size:2px;font-style:normal;font-weight:normal;line-height:125%;letter-spacing:0px;word-spacing:0px;fill:#000000;fill-opacity:1;stroke:none;font-family:Sans"
       x="80.784195"
       y="1027.4951"
       id="text3847"
       sodipodi:linespacing="125%"><tspan
         sodipodi:role="line"
         id="tspan3849"
         x="80.784195"
         y="1027.4951">1</tspan></text>
    <g
       transform="matrix(0.00343692,0,0,-0.00343692,54.215479,1050.2626)"
       id="g16523">
      <path
         inkscape:connector-curvature="0"
         d="M 788,916 958,916 855,453 C 835,365 821.33333,311 814,291 840.66667,168.33333 879.33333,107 930,107 c 60,0 91,41.33333 93,124 l 36,0 C 1057,153.66667 1042.8333,91.166667 1016.5,43.5 990.16667,-4.1666667 955.66667,-28 913,-28 877.66667,-28 851.33333,-13.666667 834,15 816.66667,43.666667 798,102.33333 778,191 708.66667,45 595.33333,-28 438,-28 330.66667,-28 245.33333,13.833333 182,97.5 118.66667,181.16667 87,301 87,457 c 0,153.33333 34.66667,272.66667 104,358 69.33333,85.33333 152.66667,128 250,128 68.66667,0 125,-24.33333 169,-73 44,-48.66667 83,-128 117,-238 l 61,284 z M 700,524 C 668.66667,631.33333 633.66667,715.16667 595,775.5 556.33333,835.83333 510,866 456,866 334,866 273,723.33333 273,438 273,167.33333 331.33333,32 448,32 549.33333,32 624.33333,151.33333 673,390 l 27,134 z"
         id="path16525"
         style="fill:currentColor" />
    </g>
    <g
       transform="matrix(0.00264042,0,0,-0.00264042,99.512134,1050.2237)"
       id="g16531">
      <path
         inkscape:connector-curvature="0"
         d="m 275,-438 -165,0 c 24,112.66667 36,214.66667 36,306 l 0,1089 c 0,113.3333 10,197.6667 30,253 20,55.3333 59.66667,104 119,146 59.33333,42 133.33333,63.3333 222,64 105.33333,0 193.66667,-27.6667 265,-83 71.33333,-55.3333 107.33333,-134.6667 108,-238 C 890,979 833,880.66667 719,804 889,724 974,598.33333 974,427 974,333.66667 951.66667,250.33333 907,177 862.33333,103.66667 810.33333,51 751,19 691.66667,-13 621,-28.666667 539,-28 445.66667,-28 369.66667,7 311,77 l 0,-186 c 0,-128 -12,-237.66667 -36,-329 z m 36,605 C 363,81 435.66667,38 529,38 c 90,0 156,32.666667 198,98 42,65.33333 63,145.33333 63,240 0,72 -13.66667,145.33333 -41,220 -27.33333,74.66667 -63,132 -107,172 -40,-10 -76,-15 -108,-15 -67.33333,0 -101,17.66667 -101,53 0,32 28.33333,48 85,48 35.33333,0 79.33333,-8 132,-24 47.33333,80 71,167 71,261 0,84 -18.33333,148.3333 -55,193 -36.66667,44.6667 -85,67 -145,67 -47.33333,0 -87.66667,-13.3333 -121,-40 -33.33333,-26.6667 -56.66667,-58.3333 -70,-95 -13.33333,-36.6667 -19.66667,-97.3333 -19,-182 l 0,-867 z"
         id="path16533"
         style="fill:currentColor" />
    </g>
    <path
       sodipodi:type="arc"
       style="fill:none;stroke:#000000;stroke-width:0.2;stroke-miterlimit:4;stroke-opacity:1;stroke-dasharray:none"
       id="path4199"
       sodipodi:cx="16.962015"
       sodipodi:cy="31.939352"
       sodipodi:rx="8.7918301"
       sodipodi:ry="2.9898143"
       d="m 25.753845,31.939352 c 0,1.651229 -3.936236,2.989814 -8.79183,2.989814 -4.855594,0 -8.7918299,-1.338585 -8.7918299,-2.989814 0,-1.651229 3.9362359,-2.989814 8.7918299,-2.989814 4.855594,0 8.79183,1.338585 8.79183,2.989814"
       transform="translate(-6.8676923,1012.4586)" />
    <text
       xml:space="preserve"
       style="font-size:40px;font-style:normal;font-weight:normal;line-height:125%;letter-spacing:0px;word-spacing:0px;fill:#000000;fill-opacity:1;stroke:none;font-family:Sans"
       x="9.6502914"
       y="1039.2767"
       id="text4205"
       sodipodi:linespacing="125%"><tspan
         sodipodi:role="line"
         id="tspan4207"
         x="9.6502914"
         y="1039.2767"
         style="font-size:2px">X</tspan></text>
    <path
       sodipodi:type="arc"
       style="fill:none;stroke:#000000;stroke-width:0.2;stroke-miterlimit:4;stroke-opacity:1;stroke-dasharray:none"
       id="path4199-4"
       sodipodi:cx="16.962015"
       sodipodi:cy="31.939352"
       sodipodi:rx="10.449549"
       sodipodi:ry="3.0490184"
       d="m 27.411564,31.939352 c 0,1.683926 -4.678422,3.049018 -10.449549,3.049018 -5.771126,0 -10.4495486,-1.365092 -10.4495486,-3.049018 0,-1.683926 4.6784226,-3.049018 10.4495486,-3.049018 5.771127,0 10.449549,1.365092 10.449549,3.049018 z"
       transform="translate(47.452203,1012.3105)" />
    <text
       xml:space="preserve"
       style="font-size:40px;font-style:normal;font-weight:normal;line-height:125%;letter-spacing:0px;word-spacing:0px;fill:#000000;fill-opacity:1;stroke:none;font-family:Sans"
       x="67.492836"
       y="1040.6976"
       id="text4227"
       sodipodi:linespacing="125%"><tspan
         sodipodi:role="line"
         id="tspan4229"
         x="67.492836"
         y="1040.6976"
         style="font-size:2px">Y</tspan></text>
    <path
       style="fill:none;stroke:#000000;stroke-width:0.15000001;stroke-linecap:butt;stroke-linejoin:miter;stroke-miterlimit:4;stroke-opacity:1;stroke-dasharray:none"
       d="m 58.890314,61.752601 0.0122,2.305835"
       id="path4231"
       inkscape:connector-curvature="0"
       transform="translate(0,981.49473)"
       sodipodi:nodetypes="cc" />
    <path
       style="fill:none;stroke:#000000;stroke-width:0.15000001;stroke-linecap:butt;stroke-linejoin:miter;stroke-miterlimit:4;stroke-opacity:1;stroke-dasharray:none"
       d="m 59.384422,1043.2534 0.0122,2.3058"
       id="path4231-2"
       inkscape:connector-curvature="0"
       sodipodi:nodetypes="cc" />
    <path
       style="fill:none;stroke:#000000;stroke-width:0.15000001;stroke-linecap:butt;stroke-linejoin:miter;stroke-miterlimit:4;stroke-opacity:1;stroke-dasharray:none"
       d="m 59.933431,1043.2534 0.0122,2.3058"
       id="path4231-0"
       inkscape:connector-curvature="0"
       sodipodi:nodetypes="cc" />
    <path
       style="fill:none;stroke:#000000;stroke-width:0.15000001;stroke-linecap:butt;stroke-linejoin:miter;stroke-miterlimit:4;stroke-opacity:1;stroke-dasharray:none"
       d="m 63.17868,1043.2168 0.0122,2.3059"
       id="path4231-5"
       inkscape:connector-curvature="0"
       sodipodi:nodetypes="cc" />
    <path
       style="fill:none;stroke:#000000;stroke-width:0.15000001;stroke-linecap:butt;stroke-linejoin:miter;stroke-miterlimit:4;stroke-opacity:1;stroke-dasharray:none"
       d="m 67.070541,1043.2412 0.0122,2.3059"
       id="path4231-06"
       inkscape:connector-curvature="0"
       sodipodi:nodetypes="cc" />
    <path
       style="fill:none;stroke:#000000;stroke-width:0.15000001;stroke-linecap:butt;stroke-linejoin:miter;stroke-miterlimit:4;stroke-opacity:1;stroke-dasharray:none"
       d="m 67.66835,1043.229 0.0122,2.3059"
       id="path4231-1"
       inkscape:connector-curvature="0"
       sodipodi:nodetypes="cc" />
    <path
       style="fill:none;stroke:#000000;stroke-width:0.15000001;stroke-linecap:butt;stroke-linejoin:miter;stroke-miterlimit:4;stroke-opacity:1;stroke-dasharray:none"
       d="m 70.718397,1043.2168 0.0122,2.3059"
       id="path4231-9"
       inkscape:connector-curvature="0"
       sodipodi:nodetypes="cc" />
    <path
       style="fill:none;stroke:#000000;stroke-width:0.15000001;stroke-linecap:butt;stroke-linejoin:miter;stroke-miterlimit:4;stroke-opacity:1;stroke-dasharray:none"
       d="m 72.75583,1043.229 0.0122,2.3059"
       id="path4231-02"
       inkscape:connector-curvature="0"
       sodipodi:nodetypes="cc" />
    <path
       sodipodi:type="arc"
       style="fill:#000000;fill-opacity:1;stroke-width:0.60000002;stroke-miterlimit:4;stroke-dasharray:none"
       id="path3759-8"
       sodipodi:cx="58.575729"
       sodipodi:cy="52.534889"
       sodipodi:rx="0.98328567"
       sodipodi:ry="0.98328567"
       d="m 59.559015,52.534889 c 0,0.543054 -0.440232,0.983286 -0.983286,0.983286 -0.543053,0 -0.983285,-0.440232 -0.983285,-0.983286 0,-0.543053 0.440232,-0.983285 0.983285,-0.983285 0.543054,0 0.983286,0.440232 0.983286,0.983285 z"
       transform="matrix(1,0,0,-1,-31.07411,1096.9677)" />
    <path
       sodipodi:type="arc"
       style="fill:none;stroke:#000000;stroke-width:0.2;stroke-miterlimit:4;stroke-opacity:1;stroke-dasharray:0.40000001, 0.40000001;stroke-dashoffset:0"
       id="path4199-4-1"
       sodipodi:cx="16.962015"
       sodipodi:cy="31.939352"
       sodipodi:rx="10.449549"
       sodipodi:ry="3.0490184"
       d="m 27.411564,31.939352 c 0,1.683926 -4.678422,3.049018 -10.449549,3.049018 -5.771126,0 -10.4495486,-1.365092 -10.4495486,-3.049018 0,-1.683926 4.6784226,-3.049018 10.4495486,-3.049018 5.771127,0 10.449549,1.365092 10.449549,3.049018 z"
       transform="translate(18.906542,1012.4216)" />
    <text
       xml:space="preserve"
       style="font-size:40px;font-style:normal;font-weight:normal;line-height:125%;letter-spacing:0px;word-spacing:0px;fill:#000000;fill-opacity:1;stroke:none;font-family:Sans"
       x="38.947174"
       y="1040.8087"
       id="text4227-2"
       sodipodi:linespacing="125%"><tspan
         sodipodi:role="line"
         id="tspan4229-9"
         x="38.947174"
         y="1040.8087"
         style="font-size:2px">Y</tspan></text>
    <path
       style="fill:none;stroke:#000000;stroke-width:0.15000001;stroke-linecap:butt;stroke-linejoin:miter;stroke-miterlimit:4;stroke-opacity:1;stroke-dasharray:none"
       d="m 30.344653,1043.3584 0.0122,2.3058"
       id="path4231-6"
       inkscape:connector-curvature="0"
       sodipodi:nodetypes="cc" />
    <path
       style="fill:none;stroke:#000000;stroke-width:0.15000001;stroke-linecap:butt;stroke-linejoin:miter;stroke-miterlimit:4;stroke-opacity:1;stroke-dasharray:none"
       d="m 30.838761,1043.3645 0.0122,2.3058"
       id="path4231-2-5"
       inkscape:connector-curvature="0"
       sodipodi:nodetypes="cc" />
    <path
       style="fill:none;stroke:#000000;stroke-width:0.15000001;stroke-linecap:butt;stroke-linejoin:miter;stroke-miterlimit:4;stroke-opacity:1;stroke-dasharray:none"
       d="m 31.38777,1043.3645 0.0122,2.3058"
       id="path4231-0-2"
       inkscape:connector-curvature="0"
       sodipodi:nodetypes="cc" />
    <path
       style="fill:none;stroke:#000000;stroke-width:0.15000001;stroke-linecap:butt;stroke-linejoin:miter;stroke-miterlimit:4;stroke-opacity:1;stroke-dasharray:none"
       d="m 34.633019,1043.3279 0.0122,2.3059"
       id="path4231-5-3"
       inkscape:connector-curvature="0"
       sodipodi:nodetypes="cc" />
    <path
       style="fill:none;stroke:#000000;stroke-width:0.15000001;stroke-linecap:butt;stroke-linejoin:miter;stroke-miterlimit:4;stroke-opacity:1;stroke-dasharray:none"
       d="m 38.52488,1043.3523 0.0122,2.3059"
       id="path4231-06-9"
       inkscape:connector-curvature="0"
       sodipodi:nodetypes="cc" />
    <path
       style="fill:none;stroke:#000000;stroke-width:0.15000001;stroke-linecap:butt;stroke-linejoin:miter;stroke-miterlimit:4;stroke-opacity:1;stroke-dasharray:none"
       d="m 39.122689,1043.3401 0.0122,2.3059"
       id="path4231-1-9"
       inkscape:connector-curvature="0"
       sodipodi:nodetypes="cc" />
    <path
       style="fill:none;stroke:#000000;stroke-width:0.15000001;stroke-linecap:butt;stroke-linejoin:miter;stroke-miterlimit:4;stroke-opacity:1;stroke-dasharray:none"
       d="m 42.172736,1043.3279 0.0122,2.3059"
       id="path4231-9-4"
       inkscape:connector-curvature="0"
       sodipodi:nodetypes="cc" />
    <path
       style="fill:none;stroke:#000000;stroke-width:0.15000001;stroke-linecap:butt;stroke-linejoin:miter;stroke-miterlimit:4;stroke-opacity:1;stroke-dasharray:none"
       d="m 44.210169,1043.3401 0.0122,2.3059"
       id="path4231-02-6"
       inkscape:connector-curvature="0"
       sodipodi:nodetypes="cc" />
    <text
       xml:space="preserve"
       style="font-size:40px;font-style:normal;font-weight:normal;line-height:125%;letter-spacing:0px;word-spacing:0px;fill:#000000;fill-opacity:1;stroke:none;font-family:Sans"
       x="38.699001"
       y="1039.5262"
       id="text4362"
       sodipodi:linespacing="125%"><tspan
         sodipodi:role="line"
         id="tspan4364"
         x="38.699001"
         y="1039.5262"
         style="font-size:2px">~</tspan></text>
    <path
       style="fill:none;stroke:#000000;stroke-width:0.15000001;stroke-linecap:butt;stroke-linejoin:miter;stroke-miterlimit:4;stroke-opacity:1;stroke-dasharray:none"
       d="m 3.5990561,1043.1776 0.0122,2.3059"
       id="path4231-06-9-6"
       inkscape:connector-curvature="0"
       sodipodi:nodetypes="cc" />
    <path
       style="fill:none;stroke:#000000;stroke-width:0.15000001;stroke-linecap:butt;stroke-linejoin:miter;stroke-miterlimit:4;stroke-opacity:1;stroke-dasharray:none"
       d="m 4.1646176,1043.1815 0.0122,2.3059"
       id="path4231-1-9-7"
       inkscape:connector-curvature="0"
       sodipodi:nodetypes="cc" />
    <path
       style="fill:none;stroke:#000000;stroke-width:0.15000001;stroke-linecap:butt;stroke-linejoin:miter;stroke-miterlimit:4;stroke-opacity:1;stroke-dasharray:none"
       d="m 8.9586207,1043.2105 0.0122,2.3059"
       id="path4231-1-9-7-7"
       inkscape:connector-curvature="0"
       sodipodi:nodetypes="cc" />
    <path
       style="fill:none;stroke:#000000;stroke-width:0.15000001;stroke-linecap:butt;stroke-linejoin:miter;stroke-miterlimit:4;stroke-opacity:1;stroke-dasharray:none"
       d="m 14.746993,1043.2267 0.0122,2.3059"
       id="path4231-1-9-7-3"
       inkscape:connector-curvature="0"
       sodipodi:nodetypes="cc" />
  </g>
</svg>
